%TF.GenerationSoftware,KiCad,Pcbnew,(7.0.0)*%
%TF.CreationDate,2023-07-06T12:34:01-04:00*%
%TF.ProjectId,led-controller,6c65642d-636f-46e7-9472-6f6c6c65722e,rev?*%
%TF.SameCoordinates,Original*%
%TF.FileFunction,Drillmap*%
%TF.FilePolarity,Positive*%
%FSLAX45Y45*%
G04 Gerber Fmt 4.5, Leading zero omitted, Abs format (unit mm)*
G04 Created by KiCad (PCBNEW (7.0.0)) date 2023-07-06 12:34:01*
%MOMM*%
%LPD*%
G01*
G04 APERTURE LIST*
%ADD10C,0.050000*%
%ADD11C,0.200000*%
%ADD12C,0.300000*%
G04 APERTURE END LIST*
D10*
X16865600Y-14732000D02*
X16865600Y-4064000D01*
X3429000Y-14732000D02*
X16865600Y-14732000D01*
X16865600Y-4064000D02*
X3429000Y-4064000D01*
X3429000Y-4064000D02*
X3429000Y-14732000D01*
D11*
D12*
X3660000Y-14201000D02*
X3960000Y-14501000D01*
X3960000Y-14201000D02*
X3660000Y-14501000D01*
X16360000Y-4295000D02*
X16660000Y-4595000D01*
X16660000Y-4295000D02*
X16360000Y-4595000D01*
D11*
X3674119Y-15027976D02*
X3674119Y-14827976D01*
X3674119Y-14827976D02*
X3721738Y-14827976D01*
X3721738Y-14827976D02*
X3750309Y-14837500D01*
X3750309Y-14837500D02*
X3769357Y-14856548D01*
X3769357Y-14856548D02*
X3778881Y-14875595D01*
X3778881Y-14875595D02*
X3788405Y-14913690D01*
X3788405Y-14913690D02*
X3788405Y-14942262D01*
X3788405Y-14942262D02*
X3778881Y-14980357D01*
X3778881Y-14980357D02*
X3769357Y-14999405D01*
X3769357Y-14999405D02*
X3750309Y-15018452D01*
X3750309Y-15018452D02*
X3721738Y-15027976D01*
X3721738Y-15027976D02*
X3674119Y-15027976D01*
X3874119Y-15027976D02*
X3874119Y-14894643D01*
X3874119Y-14932738D02*
X3883643Y-14913690D01*
X3883643Y-14913690D02*
X3893167Y-14904167D01*
X3893167Y-14904167D02*
X3912214Y-14894643D01*
X3912214Y-14894643D02*
X3931262Y-14894643D01*
X3997928Y-15027976D02*
X3997928Y-14894643D01*
X3997928Y-14827976D02*
X3988405Y-14837500D01*
X3988405Y-14837500D02*
X3997928Y-14847024D01*
X3997928Y-14847024D02*
X4007452Y-14837500D01*
X4007452Y-14837500D02*
X3997928Y-14827976D01*
X3997928Y-14827976D02*
X3997928Y-14847024D01*
X4121738Y-15027976D02*
X4102690Y-15018452D01*
X4102690Y-15018452D02*
X4093167Y-14999405D01*
X4093167Y-14999405D02*
X4093167Y-14827976D01*
X4226500Y-15027976D02*
X4207452Y-15018452D01*
X4207452Y-15018452D02*
X4197929Y-14999405D01*
X4197929Y-14999405D02*
X4197929Y-14827976D01*
X4422690Y-15027976D02*
X4422690Y-14827976D01*
X4422690Y-14827976D02*
X4489357Y-14970833D01*
X4489357Y-14970833D02*
X4556024Y-14827976D01*
X4556024Y-14827976D02*
X4556024Y-15027976D01*
X4736976Y-15027976D02*
X4736976Y-14923214D01*
X4736976Y-14923214D02*
X4727452Y-14904167D01*
X4727452Y-14904167D02*
X4708405Y-14894643D01*
X4708405Y-14894643D02*
X4670309Y-14894643D01*
X4670309Y-14894643D02*
X4651262Y-14904167D01*
X4736976Y-15018452D02*
X4717929Y-15027976D01*
X4717929Y-15027976D02*
X4670309Y-15027976D01*
X4670309Y-15027976D02*
X4651262Y-15018452D01*
X4651262Y-15018452D02*
X4641738Y-14999405D01*
X4641738Y-14999405D02*
X4641738Y-14980357D01*
X4641738Y-14980357D02*
X4651262Y-14961309D01*
X4651262Y-14961309D02*
X4670309Y-14951786D01*
X4670309Y-14951786D02*
X4717929Y-14951786D01*
X4717929Y-14951786D02*
X4736976Y-14942262D01*
X4832214Y-14894643D02*
X4832214Y-15094643D01*
X4832214Y-14904167D02*
X4851262Y-14894643D01*
X4851262Y-14894643D02*
X4889357Y-14894643D01*
X4889357Y-14894643D02*
X4908405Y-14904167D01*
X4908405Y-14904167D02*
X4917929Y-14913690D01*
X4917929Y-14913690D02*
X4927452Y-14932738D01*
X4927452Y-14932738D02*
X4927452Y-14989881D01*
X4927452Y-14989881D02*
X4917929Y-15008928D01*
X4917929Y-15008928D02*
X4908405Y-15018452D01*
X4908405Y-15018452D02*
X4889357Y-15027976D01*
X4889357Y-15027976D02*
X4851262Y-15027976D01*
X4851262Y-15027976D02*
X4832214Y-15018452D01*
X5013167Y-15008928D02*
X5022690Y-15018452D01*
X5022690Y-15018452D02*
X5013167Y-15027976D01*
X5013167Y-15027976D02*
X5003643Y-15018452D01*
X5003643Y-15018452D02*
X5013167Y-15008928D01*
X5013167Y-15008928D02*
X5013167Y-15027976D01*
X5013167Y-14904167D02*
X5022690Y-14913690D01*
X5022690Y-14913690D02*
X5013167Y-14923214D01*
X5013167Y-14923214D02*
X5003643Y-14913690D01*
X5003643Y-14913690D02*
X5013167Y-14904167D01*
X5013167Y-14904167D02*
X5013167Y-14923214D01*
X3226500Y-15274500D02*
X3426500Y-15474500D01*
X3426500Y-15274500D02*
X3226500Y-15474500D01*
X3655071Y-15247976D02*
X3778881Y-15247976D01*
X3778881Y-15247976D02*
X3712214Y-15324167D01*
X3712214Y-15324167D02*
X3740786Y-15324167D01*
X3740786Y-15324167D02*
X3759833Y-15333690D01*
X3759833Y-15333690D02*
X3769357Y-15343214D01*
X3769357Y-15343214D02*
X3778881Y-15362262D01*
X3778881Y-15362262D02*
X3778881Y-15409881D01*
X3778881Y-15409881D02*
X3769357Y-15428928D01*
X3769357Y-15428928D02*
X3759833Y-15438452D01*
X3759833Y-15438452D02*
X3740786Y-15447976D01*
X3740786Y-15447976D02*
X3683643Y-15447976D01*
X3683643Y-15447976D02*
X3664595Y-15438452D01*
X3664595Y-15438452D02*
X3655071Y-15428928D01*
X3864595Y-15428928D02*
X3874119Y-15438452D01*
X3874119Y-15438452D02*
X3864595Y-15447976D01*
X3864595Y-15447976D02*
X3855071Y-15438452D01*
X3855071Y-15438452D02*
X3864595Y-15428928D01*
X3864595Y-15428928D02*
X3864595Y-15447976D01*
X3997928Y-15247976D02*
X4016976Y-15247976D01*
X4016976Y-15247976D02*
X4036024Y-15257500D01*
X4036024Y-15257500D02*
X4045548Y-15267024D01*
X4045548Y-15267024D02*
X4055071Y-15286071D01*
X4055071Y-15286071D02*
X4064595Y-15324167D01*
X4064595Y-15324167D02*
X4064595Y-15371786D01*
X4064595Y-15371786D02*
X4055071Y-15409881D01*
X4055071Y-15409881D02*
X4045548Y-15428928D01*
X4045548Y-15428928D02*
X4036024Y-15438452D01*
X4036024Y-15438452D02*
X4016976Y-15447976D01*
X4016976Y-15447976D02*
X3997928Y-15447976D01*
X3997928Y-15447976D02*
X3978881Y-15438452D01*
X3978881Y-15438452D02*
X3969357Y-15428928D01*
X3969357Y-15428928D02*
X3959833Y-15409881D01*
X3959833Y-15409881D02*
X3950309Y-15371786D01*
X3950309Y-15371786D02*
X3950309Y-15324167D01*
X3950309Y-15324167D02*
X3959833Y-15286071D01*
X3959833Y-15286071D02*
X3969357Y-15267024D01*
X3969357Y-15267024D02*
X3978881Y-15257500D01*
X3978881Y-15257500D02*
X3997928Y-15247976D01*
X4188405Y-15247976D02*
X4207452Y-15247976D01*
X4207452Y-15247976D02*
X4226500Y-15257500D01*
X4226500Y-15257500D02*
X4236024Y-15267024D01*
X4236024Y-15267024D02*
X4245548Y-15286071D01*
X4245548Y-15286071D02*
X4255071Y-15324167D01*
X4255071Y-15324167D02*
X4255071Y-15371786D01*
X4255071Y-15371786D02*
X4245548Y-15409881D01*
X4245548Y-15409881D02*
X4236024Y-15428928D01*
X4236024Y-15428928D02*
X4226500Y-15438452D01*
X4226500Y-15438452D02*
X4207452Y-15447976D01*
X4207452Y-15447976D02*
X4188405Y-15447976D01*
X4188405Y-15447976D02*
X4169357Y-15438452D01*
X4169357Y-15438452D02*
X4159833Y-15428928D01*
X4159833Y-15428928D02*
X4150309Y-15409881D01*
X4150309Y-15409881D02*
X4140786Y-15371786D01*
X4140786Y-15371786D02*
X4140786Y-15324167D01*
X4140786Y-15324167D02*
X4150309Y-15286071D01*
X4150309Y-15286071D02*
X4159833Y-15267024D01*
X4159833Y-15267024D02*
X4169357Y-15257500D01*
X4169357Y-15257500D02*
X4188405Y-15247976D01*
X4378881Y-15247976D02*
X4397929Y-15247976D01*
X4397929Y-15247976D02*
X4416976Y-15257500D01*
X4416976Y-15257500D02*
X4426500Y-15267024D01*
X4426500Y-15267024D02*
X4436024Y-15286071D01*
X4436024Y-15286071D02*
X4445548Y-15324167D01*
X4445548Y-15324167D02*
X4445548Y-15371786D01*
X4445548Y-15371786D02*
X4436024Y-15409881D01*
X4436024Y-15409881D02*
X4426500Y-15428928D01*
X4426500Y-15428928D02*
X4416976Y-15438452D01*
X4416976Y-15438452D02*
X4397929Y-15447976D01*
X4397929Y-15447976D02*
X4378881Y-15447976D01*
X4378881Y-15447976D02*
X4359833Y-15438452D01*
X4359833Y-15438452D02*
X4350310Y-15428928D01*
X4350310Y-15428928D02*
X4340786Y-15409881D01*
X4340786Y-15409881D02*
X4331262Y-15371786D01*
X4331262Y-15371786D02*
X4331262Y-15324167D01*
X4331262Y-15324167D02*
X4340786Y-15286071D01*
X4340786Y-15286071D02*
X4350310Y-15267024D01*
X4350310Y-15267024D02*
X4359833Y-15257500D01*
X4359833Y-15257500D02*
X4378881Y-15247976D01*
X4531262Y-15447976D02*
X4531262Y-15314643D01*
X4531262Y-15333690D02*
X4540786Y-15324167D01*
X4540786Y-15324167D02*
X4559833Y-15314643D01*
X4559833Y-15314643D02*
X4588405Y-15314643D01*
X4588405Y-15314643D02*
X4607452Y-15324167D01*
X4607452Y-15324167D02*
X4616976Y-15343214D01*
X4616976Y-15343214D02*
X4616976Y-15447976D01*
X4616976Y-15343214D02*
X4626500Y-15324167D01*
X4626500Y-15324167D02*
X4645548Y-15314643D01*
X4645548Y-15314643D02*
X4674119Y-15314643D01*
X4674119Y-15314643D02*
X4693167Y-15324167D01*
X4693167Y-15324167D02*
X4702691Y-15343214D01*
X4702691Y-15343214D02*
X4702691Y-15447976D01*
X4797929Y-15447976D02*
X4797929Y-15314643D01*
X4797929Y-15333690D02*
X4807452Y-15324167D01*
X4807452Y-15324167D02*
X4826500Y-15314643D01*
X4826500Y-15314643D02*
X4855072Y-15314643D01*
X4855072Y-15314643D02*
X4874119Y-15324167D01*
X4874119Y-15324167D02*
X4883643Y-15343214D01*
X4883643Y-15343214D02*
X4883643Y-15447976D01*
X4883643Y-15343214D02*
X4893167Y-15324167D01*
X4893167Y-15324167D02*
X4912214Y-15314643D01*
X4912214Y-15314643D02*
X4940786Y-15314643D01*
X4940786Y-15314643D02*
X4959833Y-15324167D01*
X4959833Y-15324167D02*
X4969357Y-15343214D01*
X4969357Y-15343214D02*
X4969357Y-15447976D01*
X5327452Y-15238452D02*
X5156024Y-15495595D01*
X5552214Y-15247976D02*
X5571262Y-15247976D01*
X5571262Y-15247976D02*
X5590310Y-15257500D01*
X5590310Y-15257500D02*
X5599833Y-15267024D01*
X5599833Y-15267024D02*
X5609357Y-15286071D01*
X5609357Y-15286071D02*
X5618881Y-15324167D01*
X5618881Y-15324167D02*
X5618881Y-15371786D01*
X5618881Y-15371786D02*
X5609357Y-15409881D01*
X5609357Y-15409881D02*
X5599833Y-15428928D01*
X5599833Y-15428928D02*
X5590310Y-15438452D01*
X5590310Y-15438452D02*
X5571262Y-15447976D01*
X5571262Y-15447976D02*
X5552214Y-15447976D01*
X5552214Y-15447976D02*
X5533167Y-15438452D01*
X5533167Y-15438452D02*
X5523643Y-15428928D01*
X5523643Y-15428928D02*
X5514119Y-15409881D01*
X5514119Y-15409881D02*
X5504595Y-15371786D01*
X5504595Y-15371786D02*
X5504595Y-15324167D01*
X5504595Y-15324167D02*
X5514119Y-15286071D01*
X5514119Y-15286071D02*
X5523643Y-15267024D01*
X5523643Y-15267024D02*
X5533167Y-15257500D01*
X5533167Y-15257500D02*
X5552214Y-15247976D01*
X5704595Y-15428928D02*
X5714119Y-15438452D01*
X5714119Y-15438452D02*
X5704595Y-15447976D01*
X5704595Y-15447976D02*
X5695071Y-15438452D01*
X5695071Y-15438452D02*
X5704595Y-15428928D01*
X5704595Y-15428928D02*
X5704595Y-15447976D01*
X5904595Y-15447976D02*
X5790310Y-15447976D01*
X5847452Y-15447976D02*
X5847452Y-15247976D01*
X5847452Y-15247976D02*
X5828405Y-15276548D01*
X5828405Y-15276548D02*
X5809357Y-15295595D01*
X5809357Y-15295595D02*
X5790310Y-15305119D01*
X6095071Y-15447976D02*
X5980786Y-15447976D01*
X6037929Y-15447976D02*
X6037929Y-15247976D01*
X6037929Y-15247976D02*
X6018881Y-15276548D01*
X6018881Y-15276548D02*
X5999833Y-15295595D01*
X5999833Y-15295595D02*
X5980786Y-15305119D01*
X6209357Y-15333690D02*
X6190310Y-15324167D01*
X6190310Y-15324167D02*
X6180786Y-15314643D01*
X6180786Y-15314643D02*
X6171262Y-15295595D01*
X6171262Y-15295595D02*
X6171262Y-15286071D01*
X6171262Y-15286071D02*
X6180786Y-15267024D01*
X6180786Y-15267024D02*
X6190310Y-15257500D01*
X6190310Y-15257500D02*
X6209357Y-15247976D01*
X6209357Y-15247976D02*
X6247452Y-15247976D01*
X6247452Y-15247976D02*
X6266500Y-15257500D01*
X6266500Y-15257500D02*
X6276024Y-15267024D01*
X6276024Y-15267024D02*
X6285548Y-15286071D01*
X6285548Y-15286071D02*
X6285548Y-15295595D01*
X6285548Y-15295595D02*
X6276024Y-15314643D01*
X6276024Y-15314643D02*
X6266500Y-15324167D01*
X6266500Y-15324167D02*
X6247452Y-15333690D01*
X6247452Y-15333690D02*
X6209357Y-15333690D01*
X6209357Y-15333690D02*
X6190310Y-15343214D01*
X6190310Y-15343214D02*
X6180786Y-15352738D01*
X6180786Y-15352738D02*
X6171262Y-15371786D01*
X6171262Y-15371786D02*
X6171262Y-15409881D01*
X6171262Y-15409881D02*
X6180786Y-15428928D01*
X6180786Y-15428928D02*
X6190310Y-15438452D01*
X6190310Y-15438452D02*
X6209357Y-15447976D01*
X6209357Y-15447976D02*
X6247452Y-15447976D01*
X6247452Y-15447976D02*
X6266500Y-15438452D01*
X6266500Y-15438452D02*
X6276024Y-15428928D01*
X6276024Y-15428928D02*
X6285548Y-15409881D01*
X6285548Y-15409881D02*
X6285548Y-15371786D01*
X6285548Y-15371786D02*
X6276024Y-15352738D01*
X6276024Y-15352738D02*
X6266500Y-15343214D01*
X6266500Y-15343214D02*
X6247452Y-15333690D01*
X6476024Y-15447976D02*
X6361738Y-15447976D01*
X6418881Y-15447976D02*
X6418881Y-15247976D01*
X6418881Y-15247976D02*
X6399833Y-15276548D01*
X6399833Y-15276548D02*
X6380786Y-15295595D01*
X6380786Y-15295595D02*
X6361738Y-15305119D01*
X6552214Y-15247976D02*
X6552214Y-15286071D01*
X6628405Y-15247976D02*
X6628405Y-15286071D01*
X6891262Y-15524167D02*
X6881738Y-15514643D01*
X6881738Y-15514643D02*
X6862691Y-15486071D01*
X6862691Y-15486071D02*
X6853167Y-15467024D01*
X6853167Y-15467024D02*
X6843643Y-15438452D01*
X6843643Y-15438452D02*
X6834119Y-15390833D01*
X6834119Y-15390833D02*
X6834119Y-15352738D01*
X6834119Y-15352738D02*
X6843643Y-15305119D01*
X6843643Y-15305119D02*
X6853167Y-15276548D01*
X6853167Y-15276548D02*
X6862691Y-15257500D01*
X6862691Y-15257500D02*
X6881738Y-15228928D01*
X6881738Y-15228928D02*
X6891262Y-15219405D01*
X6957929Y-15267024D02*
X6967452Y-15257500D01*
X6967452Y-15257500D02*
X6986500Y-15247976D01*
X6986500Y-15247976D02*
X7034119Y-15247976D01*
X7034119Y-15247976D02*
X7053167Y-15257500D01*
X7053167Y-15257500D02*
X7062691Y-15267024D01*
X7062691Y-15267024D02*
X7072214Y-15286071D01*
X7072214Y-15286071D02*
X7072214Y-15305119D01*
X7072214Y-15305119D02*
X7062691Y-15333690D01*
X7062691Y-15333690D02*
X6948405Y-15447976D01*
X6948405Y-15447976D02*
X7072214Y-15447976D01*
X7277929Y-15447976D02*
X7277929Y-15247976D01*
X7363643Y-15447976D02*
X7363643Y-15343214D01*
X7363643Y-15343214D02*
X7354119Y-15324167D01*
X7354119Y-15324167D02*
X7335072Y-15314643D01*
X7335072Y-15314643D02*
X7306500Y-15314643D01*
X7306500Y-15314643D02*
X7287452Y-15324167D01*
X7287452Y-15324167D02*
X7277929Y-15333690D01*
X7487452Y-15447976D02*
X7468405Y-15438452D01*
X7468405Y-15438452D02*
X7458881Y-15428928D01*
X7458881Y-15428928D02*
X7449357Y-15409881D01*
X7449357Y-15409881D02*
X7449357Y-15352738D01*
X7449357Y-15352738D02*
X7458881Y-15333690D01*
X7458881Y-15333690D02*
X7468405Y-15324167D01*
X7468405Y-15324167D02*
X7487452Y-15314643D01*
X7487452Y-15314643D02*
X7516024Y-15314643D01*
X7516024Y-15314643D02*
X7535072Y-15324167D01*
X7535072Y-15324167D02*
X7544595Y-15333690D01*
X7544595Y-15333690D02*
X7554119Y-15352738D01*
X7554119Y-15352738D02*
X7554119Y-15409881D01*
X7554119Y-15409881D02*
X7544595Y-15428928D01*
X7544595Y-15428928D02*
X7535072Y-15438452D01*
X7535072Y-15438452D02*
X7516024Y-15447976D01*
X7516024Y-15447976D02*
X7487452Y-15447976D01*
X7668405Y-15447976D02*
X7649357Y-15438452D01*
X7649357Y-15438452D02*
X7639833Y-15419405D01*
X7639833Y-15419405D02*
X7639833Y-15247976D01*
X7820786Y-15438452D02*
X7801738Y-15447976D01*
X7801738Y-15447976D02*
X7763643Y-15447976D01*
X7763643Y-15447976D02*
X7744595Y-15438452D01*
X7744595Y-15438452D02*
X7735072Y-15419405D01*
X7735072Y-15419405D02*
X7735072Y-15343214D01*
X7735072Y-15343214D02*
X7744595Y-15324167D01*
X7744595Y-15324167D02*
X7763643Y-15314643D01*
X7763643Y-15314643D02*
X7801738Y-15314643D01*
X7801738Y-15314643D02*
X7820786Y-15324167D01*
X7820786Y-15324167D02*
X7830310Y-15343214D01*
X7830310Y-15343214D02*
X7830310Y-15362262D01*
X7830310Y-15362262D02*
X7735072Y-15381309D01*
X7906500Y-15438452D02*
X7925548Y-15447976D01*
X7925548Y-15447976D02*
X7963643Y-15447976D01*
X7963643Y-15447976D02*
X7982691Y-15438452D01*
X7982691Y-15438452D02*
X7992214Y-15419405D01*
X7992214Y-15419405D02*
X7992214Y-15409881D01*
X7992214Y-15409881D02*
X7982691Y-15390833D01*
X7982691Y-15390833D02*
X7963643Y-15381309D01*
X7963643Y-15381309D02*
X7935072Y-15381309D01*
X7935072Y-15381309D02*
X7916024Y-15371786D01*
X7916024Y-15371786D02*
X7906500Y-15352738D01*
X7906500Y-15352738D02*
X7906500Y-15343214D01*
X7906500Y-15343214D02*
X7916024Y-15324167D01*
X7916024Y-15324167D02*
X7935072Y-15314643D01*
X7935072Y-15314643D02*
X7963643Y-15314643D01*
X7963643Y-15314643D02*
X7982691Y-15324167D01*
X8058881Y-15524167D02*
X8068405Y-15514643D01*
X8068405Y-15514643D02*
X8087453Y-15486071D01*
X8087453Y-15486071D02*
X8096976Y-15467024D01*
X8096976Y-15467024D02*
X8106500Y-15438452D01*
X8106500Y-15438452D02*
X8116024Y-15390833D01*
X8116024Y-15390833D02*
X8116024Y-15352738D01*
X8116024Y-15352738D02*
X8106500Y-15305119D01*
X8106500Y-15305119D02*
X8096976Y-15276548D01*
X8096976Y-15276548D02*
X8087453Y-15257500D01*
X8087453Y-15257500D02*
X8068405Y-15228928D01*
X8068405Y-15228928D02*
X8058881Y-15219405D01*
X8388405Y-15524167D02*
X8378881Y-15514643D01*
X8378881Y-15514643D02*
X8359833Y-15486071D01*
X8359833Y-15486071D02*
X8350310Y-15467024D01*
X8350310Y-15467024D02*
X8340786Y-15438452D01*
X8340786Y-15438452D02*
X8331262Y-15390833D01*
X8331262Y-15390833D02*
X8331262Y-15352738D01*
X8331262Y-15352738D02*
X8340786Y-15305119D01*
X8340786Y-15305119D02*
X8350310Y-15276548D01*
X8350310Y-15276548D02*
X8359833Y-15257500D01*
X8359833Y-15257500D02*
X8378881Y-15228928D01*
X8378881Y-15228928D02*
X8388405Y-15219405D01*
X8464595Y-15314643D02*
X8464595Y-15447976D01*
X8464595Y-15333690D02*
X8474119Y-15324167D01*
X8474119Y-15324167D02*
X8493167Y-15314643D01*
X8493167Y-15314643D02*
X8521738Y-15314643D01*
X8521738Y-15314643D02*
X8540786Y-15324167D01*
X8540786Y-15324167D02*
X8550310Y-15343214D01*
X8550310Y-15343214D02*
X8550310Y-15447976D01*
X8674119Y-15447976D02*
X8655072Y-15438452D01*
X8655072Y-15438452D02*
X8645548Y-15428928D01*
X8645548Y-15428928D02*
X8636024Y-15409881D01*
X8636024Y-15409881D02*
X8636024Y-15352738D01*
X8636024Y-15352738D02*
X8645548Y-15333690D01*
X8645548Y-15333690D02*
X8655072Y-15324167D01*
X8655072Y-15324167D02*
X8674119Y-15314643D01*
X8674119Y-15314643D02*
X8702691Y-15314643D01*
X8702691Y-15314643D02*
X8721738Y-15324167D01*
X8721738Y-15324167D02*
X8731262Y-15333690D01*
X8731262Y-15333690D02*
X8740786Y-15352738D01*
X8740786Y-15352738D02*
X8740786Y-15409881D01*
X8740786Y-15409881D02*
X8731262Y-15428928D01*
X8731262Y-15428928D02*
X8721738Y-15438452D01*
X8721738Y-15438452D02*
X8702691Y-15447976D01*
X8702691Y-15447976D02*
X8674119Y-15447976D01*
X8797929Y-15314643D02*
X8874119Y-15314643D01*
X8826500Y-15247976D02*
X8826500Y-15419405D01*
X8826500Y-15419405D02*
X8836024Y-15438452D01*
X8836024Y-15438452D02*
X8855072Y-15447976D01*
X8855072Y-15447976D02*
X8874119Y-15447976D01*
X9060786Y-15314643D02*
X9060786Y-15514643D01*
X9060786Y-15324167D02*
X9079834Y-15314643D01*
X9079834Y-15314643D02*
X9117929Y-15314643D01*
X9117929Y-15314643D02*
X9136976Y-15324167D01*
X9136976Y-15324167D02*
X9146500Y-15333690D01*
X9146500Y-15333690D02*
X9156024Y-15352738D01*
X9156024Y-15352738D02*
X9156024Y-15409881D01*
X9156024Y-15409881D02*
X9146500Y-15428928D01*
X9146500Y-15428928D02*
X9136976Y-15438452D01*
X9136976Y-15438452D02*
X9117929Y-15447976D01*
X9117929Y-15447976D02*
X9079834Y-15447976D01*
X9079834Y-15447976D02*
X9060786Y-15438452D01*
X9270310Y-15447976D02*
X9251262Y-15438452D01*
X9251262Y-15438452D02*
X9241738Y-15419405D01*
X9241738Y-15419405D02*
X9241738Y-15247976D01*
X9432215Y-15447976D02*
X9432215Y-15343214D01*
X9432215Y-15343214D02*
X9422691Y-15324167D01*
X9422691Y-15324167D02*
X9403643Y-15314643D01*
X9403643Y-15314643D02*
X9365548Y-15314643D01*
X9365548Y-15314643D02*
X9346500Y-15324167D01*
X9432215Y-15438452D02*
X9413167Y-15447976D01*
X9413167Y-15447976D02*
X9365548Y-15447976D01*
X9365548Y-15447976D02*
X9346500Y-15438452D01*
X9346500Y-15438452D02*
X9336976Y-15419405D01*
X9336976Y-15419405D02*
X9336976Y-15400357D01*
X9336976Y-15400357D02*
X9346500Y-15381309D01*
X9346500Y-15381309D02*
X9365548Y-15371786D01*
X9365548Y-15371786D02*
X9413167Y-15371786D01*
X9413167Y-15371786D02*
X9432215Y-15362262D01*
X9498881Y-15314643D02*
X9575072Y-15314643D01*
X9527453Y-15247976D02*
X9527453Y-15419405D01*
X9527453Y-15419405D02*
X9536976Y-15438452D01*
X9536976Y-15438452D02*
X9556024Y-15447976D01*
X9556024Y-15447976D02*
X9575072Y-15447976D01*
X9717929Y-15438452D02*
X9698881Y-15447976D01*
X9698881Y-15447976D02*
X9660786Y-15447976D01*
X9660786Y-15447976D02*
X9641738Y-15438452D01*
X9641738Y-15438452D02*
X9632215Y-15419405D01*
X9632215Y-15419405D02*
X9632215Y-15343214D01*
X9632215Y-15343214D02*
X9641738Y-15324167D01*
X9641738Y-15324167D02*
X9660786Y-15314643D01*
X9660786Y-15314643D02*
X9698881Y-15314643D01*
X9698881Y-15314643D02*
X9717929Y-15324167D01*
X9717929Y-15324167D02*
X9727453Y-15343214D01*
X9727453Y-15343214D02*
X9727453Y-15362262D01*
X9727453Y-15362262D02*
X9632215Y-15381309D01*
X9898881Y-15447976D02*
X9898881Y-15247976D01*
X9898881Y-15438452D02*
X9879834Y-15447976D01*
X9879834Y-15447976D02*
X9841738Y-15447976D01*
X9841738Y-15447976D02*
X9822691Y-15438452D01*
X9822691Y-15438452D02*
X9813167Y-15428928D01*
X9813167Y-15428928D02*
X9803643Y-15409881D01*
X9803643Y-15409881D02*
X9803643Y-15352738D01*
X9803643Y-15352738D02*
X9813167Y-15333690D01*
X9813167Y-15333690D02*
X9822691Y-15324167D01*
X9822691Y-15324167D02*
X9841738Y-15314643D01*
X9841738Y-15314643D02*
X9879834Y-15314643D01*
X9879834Y-15314643D02*
X9898881Y-15324167D01*
X9975072Y-15524167D02*
X9984596Y-15514643D01*
X9984596Y-15514643D02*
X10003643Y-15486071D01*
X10003643Y-15486071D02*
X10013167Y-15467024D01*
X10013167Y-15467024D02*
X10022691Y-15438452D01*
X10022691Y-15438452D02*
X10032215Y-15390833D01*
X10032215Y-15390833D02*
X10032215Y-15352738D01*
X10032215Y-15352738D02*
X10022691Y-15305119D01*
X10022691Y-15305119D02*
X10013167Y-15276548D01*
X10013167Y-15276548D02*
X10003643Y-15257500D01*
X10003643Y-15257500D02*
X9984596Y-15228928D01*
X9984596Y-15228928D02*
X9975072Y-15219405D01*
M02*
