M48
; DRILL file {KiCad (7.0.0)} date Thu Jul  6 12:34:00 2023
; FORMAT={-:-/ absolute / inch / decimal}
; #@! TF.CreationDate,2023-07-06T12:34:00-04:00
; #@! TF.GenerationSoftware,Kicad,Pcbnew,(7.0.0)
; #@! TF.FileFunction,Plated,1,2,PTH
FMAT,2
INCH
; #@! TA.AperFunction,Plated,PTH,ComponentDrill
T1C0.0079
; #@! TA.AperFunction,Plated,PTH,ViaDrill
T2C0.0157
; #@! TA.AperFunction,Plated,PTH,ComponentDrill
T3C0.0287
; #@! TA.AperFunction,Plated,PTH,ComponentDrill
T4C0.0433
; #@! TA.AperFunction,Plated,PTH,ComponentDrill
T5C0.0472
; #@! TA.AperFunction,Plated,PTH,ComponentDrill
T6C0.0512
; #@! TA.AperFunction,Plated,PTH,ComponentDrill
T7C0.0591
; #@! TA.AperFunction,Plated,PTH,ComponentDrill
T8C0.0866
%
G90
G05
T1
X6.25Y-2.6499
X6.25Y-2.71
X6.28Y-2.6199
X6.28Y-2.68
X6.28Y-2.74
X6.31Y-2.6499
X6.31Y-2.71
X6.3401Y-2.6199
X6.3401Y-2.68
X6.3401Y-2.74
X6.3701Y-2.6499
X6.3701Y-2.71
T2
X1.93Y-2.91
X5.37Y-3.19
X5.5Y-4.74
X5.59Y-4.74
X5.72Y-4.94
X5.735Y-4.545
X5.75Y-2.01
X5.77Y-5.33
X5.8Y-3.25
X5.82Y-2.96
X5.8225Y-2.89
X5.8434Y-2.71
X6.1175Y-3.73
X6.13Y-3.88
X6.14Y-4.88
X6.1766Y-5.52
X6.26Y-5.61
X6.26Y-5.73
X6.27Y-5.33
X6.28Y-3.88
X6.31Y-4.49
X6.32Y-4.45
X6.33Y-3.14
X6.33Y-3.3
X6.3436Y-3.9236
X6.3442Y-4.419
X6.3575Y-4.0825
X6.36Y-4.16
X6.3795Y-4.2195
X6.41Y-4.87
X6.59Y-4.77
X6.62Y-3.27
T3
X5.44Y-2.58
X5.44Y-2.68
X5.44Y-2.78
X5.74Y-2.58
X5.74Y-2.68
X5.74Y-2.78
T4
X1.78Y-3.05
X1.78Y-3.15
X1.78Y-3.25
X6.43Y-5.32
X6.43Y-5.42
X6.43Y-5.52
X6.43Y-5.62
X6.43Y-5.72
T5
X2.1056Y-3.9113
X2.1056Y-4.177
X2.1061Y-1.8228
X2.1061Y-2.0885
T6
X1.6532Y-1.7369
X1.6532Y-1.9338
X1.6532Y-2.1306
T7
X1.44Y-2.7996
X1.44Y-3.5004
T8
X5.0977Y-5.3188
X5.0977Y-5.5353
X5.0982Y-3.2303
X5.0982Y-3.4468
T0
M30
